<svg xmlns="http://www.w3.org/2000/svg" viewBox="0 0 512 512" width="512" height="512">
<circle cx="256" cy="256" r="230" fill="#faf6ee"></circle>
<g transform="translate(256 256) scale(3.4) translate(-33 -46)">
<path d="M33 44 C21 36 18 22 23 10 C25.5 17 30 17 30 10 C34 17 41 22 36 32 C43 27 45 15 38 3 C47 10 50 24 43 36 C39 41 35 44 33 44 Z" fill="#d9662f"></path>
<path d="M33 38 C26 33 24 24 27 16 C28.5 20 31 20 31 16 C33 20 37 24 34 30 C38 27 39 20 36 14 C41 18 43 26 39 33 C37 36 34 38 33 38 Z" fill="#f2a03d"></path>
<path d="M18 46 L48 46 L43 60 L23 60 Z" fill="#2b2420"></path>
<rect x="24" y="60" width="18" height="30" rx="5" fill="#2b2420"></rect>
</g>
</svg>
